<svg xmlns="http://www.w3.org/2000/svg" version="1.1" xmlns:xlink="http://www.w3.org/1999/xlink" xmlns:svgjs="http://svgjs.com/svgjs" width="512" height="512" x="0" y="0" viewBox="0 0 512.001 512.001" style="enable-background:new 0 0 512 512" xml:space="preserve" class=""><g><g xmlns="http://www.w3.org/2000/svg"><path d="m167.718 355.139-40-24c-4.75-2.85-10.685-2.85-15.435 0l-40 24c-4.518 2.711-7.283 7.594-7.283 12.862v48c0 5.269 2.765 10.151 7.283 12.862l40 24c2.375 1.425 5.046 2.138 7.717 2.138s5.342-.713 7.717-2.138l40-24c4.518-2.711 7.283-7.594 7.283-12.862v-48c.001-5.269-2.764-10.151-7.282-12.862zm-22.717 52.369-25 15-25-15v-31.014l25-15 25 15z" fill="none" data-original="#000000" class=""></path><path d="m349.545 232.267c13.512 5.134 27.746 7.734 42.456 7.734 66.168 0 120-53.832 120-120 0-16.171-3.164-31.856-9.403-46.619-1.943-4.598-6.045-7.927-10.943-8.883-4.898-.959-9.951.586-13.48 4.115l-52.387 52.387h-34.787v-34.787l52.387-52.387c3.529-3.528 5.072-8.582 4.116-13.48-.956-4.897-4.286-9-8.883-10.942-14.763-6.239-30.448-9.403-46.62-9.403-66.168 0-120 53.832-120 120 0 14.868 2.651 29.249 7.896 42.891l-23.897 23.895-90.644-90.644-14.932-52.264c-1.259-4.407-4.465-7.997-8.703-9.745l-80-33c-5.601-2.313-12.042-1.025-16.327 3.26l-41 41c-4.284 4.284-5.57 10.725-3.26 16.326l33 80c1.748 4.238 5.338 7.443 9.746 8.703l52.263 14.932 90.645 90.645-23.896 23.896c-13.641-5.244-28.023-7.896-42.891-7.896-66.168 0-120 53.832-120 120s53.832 120 120 120 120-53.832 120-120c0-14.711-2.6-28.943-7.734-42.456l137.007 137.822c15.562 15.655 37.147 24.634 59.222 24.634 46.045 0 83.505-37.46 83.505-83.505 0-22.074-8.979-43.66-24.633-59.222zm-316.862-172.736 26.848-26.848 64.04 26.416 11.582 40.536-35.518 35.518-40.535-11.581zm92.531 92.47 26.787-26.787 82.787 82.787-26.788 26.787zm-5.213 330c-49.626 0-90-40.374-90-90s40.374-90 90-90c13.919 0 27.258 3.092 39.646 9.188 5.761 2.837 12.689 1.688 17.23-2.852l89.728-89.729c.001 0 .001-.001.002-.001s.001-.001.002-.002l41.728-41.729c4.541-4.541 5.688-11.469 2.852-17.23-6.097-12.388-9.188-25.727-9.188-39.646 0-49.626 40.374-90 90-90 4.046 0 8.05.263 12 .787l-38.606 38.606c-2.813 2.812-4.394 6.628-4.394 10.606v56c0 8.284 6.716 15 15 15h56c3.978 0 7.793-1.58 10.606-4.394l38.606-38.606c.524 3.949.787 7.954.787 12 0 49.626-40.374 90-90 90-13.919 0-27.258-3.092-39.646-9.188-5.762-2.838-12.69-1.689-17.23 2.852l-131.46 131.461c-4.541 4.541-5.688 11.469-2.852 17.23 6.097 12.388 9.188 25.727 9.188 39.646.001 49.627-40.373 90.001-89.999 90.001zm308.494 0c-14.144 0-27.974-5.753-37.945-15.784l-137.367-138.184 74.849-74.85 138.185 137.367c10.031 9.972 15.784 23.803 15.784 37.946 0 29.503-24.003 53.505-53.506 53.505z" fill="#000" data-original="#000000" class=""></path><path d="m424.021 409.001h-.01c-8.284 0-14.995 6.716-14.995 15s6.721 15 15.005 15 15-6.716 15-15-6.716-15-15-15z" fill="#000" data-original="#000000" class=""></path></g></g></svg>